<svg xmlns="http://www.w3.org/2000/svg" width="540" height="438" viewBox="0 0 540 438">
    <g fill="none" fill-rule="evenodd" transform="translate(1 1)">
        <path fill="#990434" d="M0.045 127.568L0.325 122.539 6.089 113.701 7.207 109.891 15.207 111.568 20.516 109.891 33.722 111.288 32.604 96.303 30.369 94.45 24.883 92.215 21.354 87.288 23.486 84.215 27.119 83.097 26.28 78.73 23.766 78.45 24.604 75.098 27.398 74.539 32.325 77.612 35.119 74.818 38.089 74.539 46.648 70.171 45.81 67.656 50.56 63.745 53.074 63.009 54.369 64.862 56.604 63.745 56.604 60.774 59.119 57.701 58.839 55.009 64.325 55.568 69.074 52.495 69.074 49.7 67.957 46.73 64.604 44.774 62.928 36.774 67.119 35.936 70.369 24.304 63.486 22.73 60.236 16.304 55.766 14.73 58.28 8.583 62.089 4.495 66.001 9.701 68.236 11.936 70.089 3.936 77.81 0.024 86.369 0.862 88.604 6.45 90.28 14.45 94.369 18.259 99.957 20.495 90.28 31.009 93.81 40.583 105.721 43.936 113.163 51.098 117.074 48.303 122.28 47.289 127.207 44.774 132.236 49.7 131.677 44.215 136.045 44.495 138.839 39.568 144.325 47.009 150.369 50.539 152.325 54.45 158.369 55.289 162.28 62.45 162.56 69.333 166.089 81.422 171.119 88.583 179.119 93.891 190.089 91.656 194.281 96.303 193.163 103.009 197.81 104.862 198.369 113.142 203.119 111.568 208.045 114.539 212.795 111.288 215.766 113.142 213.354 118.171 212.795 124.774 216.883 123.377 219.677 118.45 228.795 114.818 233.163 108.495 233.163 99.377 235.398 94.45 238.927 95.009 239.486 99.936 245.354 99.656 251.119 95.745 259.119 91.098 259.119 87.568 255.207 85.053 255.486 81.422 266.56 79.289 266.839 74.818 269.354 72.024 275.957 73.7 280.045 65.98 283.399 66.539 287.207 64.304 289.721 59.656 287.766 58.259 287.486 53.892 284.795 50.259 286.369 46.73 292.236 50.539 295.486 49.142 296.045 44.774 306.281 47.009 307.957 49.98 312.045 47.289 308.795 43.936 312.324 42.259 322 46.45 329.721 41.421 332.516 37.612 334.09 39.568 346.561 35.097 351.766 28.774 352.604 17.421 357.633 16.025 363.678 18.259 370.561 13.612 385.441 22.73 385.441 31.289 396.795 36.774 398.369 42.539 392.045 48.024 392.045 50.818 388.795 55.745 374.09 59.097 372.795 55.745 354 55.745 351.486 58.818 354.281 63.568 349.633 66.818 353.441 77.892 352.604 84.495 348.236 89.98 340.516 89.421 337.162 92.495 342.928 101.612 351.207 103.289 357.633 107.656 357.811 111.568 353.162 113.98 354.281 123.098 364.516 128.862 368.324 140.495 379.119 149.612 390.928 151.289 389.811 153.701 398.649 161.421 398.09 164.495 384.604 164.215 382.369 168.024 386.281 170.818 380.795 176.862 375.486 174.73 369.441 176.862 357.811 168.024 342.928 171.098 339.399 169.142 333.354 169.142 333.074 174.73 321.441 184.025 321.441 194.818 325.074 197.612 323.678 201.422 333.074 212.495 336.883 212.774 336.883 209.421 356.516 212.774 367.766 220.774 376.604 221.612 382.09 227.097 388.236 227.936 389.074 232.025 397.633 234.539 402.281 239.289 400.324 254.171 402 261.333 405.633 263.009 405.633 259.656 408.324 257.98 419.399 263.745 429.633 264.583 431.207 270.171 442 275.935 450.561 271.289 454.928 263.009 459.957 261.891 462.649 263.568 462.09 267.656 467.399 269.053 469.633 265.98 474.281 266.539 481.441 278.45 487.766 279.289 489.162 274.539 494.369 275.935 493.633 278.73 502.649 280.583 504.883 277.891 509.633 281.142 512.045 280.862 515.957 283.378 514.561 288.862 519.486 292.495 526.928 300.215 527.207 304.303 534.09 315.657 532.795 321.701 536.604 328.024 534.09 331.936 537.162 334.73 536.883 339.097 533.074 338.818 529.721 343.289 531.119 345.98 529.441 351.009 525.354 352.303 519.766 358.172 517.354 363.936 508.795 364.215 504.883 370.818 508.795 381.891 503.766 387.936 505.441 391.745 509.811 399.745 508.516 404.495 499.119 405.333 496.604 408.024 498 412.495 495.207 417.701 489.441 416.303 482.561 424.583 475.957 417.701 471.207 421.333 464.604 419.936 462.369 417.422 454.649 417.422 450.561 415.568 448.883 417.701 445.074 418.539 443.119 424.024 449.441 427.097 451.119 431.009 445.074 432.303 433.162 427.097 429.074 426.259 401.721 412.774 390.928 411.378 386.281 413.333 387.678 417.141 383.766 419.936 377.441 415.745 365.354 415.745 355.957 421.333 350.649 428.215 347.678 432.583 341.074 435.097 335.486 431.745 334.09 423.009 320.883 400.024 308.236 390.451 293.633 386.539 285.354 381.891 283.957 385.422 277.633 386.539 266.56 377.701 260.516 374.45 253.633 374.172 251.119 378.259 246.089 378.259 242.839 367.009 229.81 350.172 205.633 321.141 183.207 300.774 173.074 296.303 168.325 299.657 163.398 297.98 163.398 287.009 152.325 264.304 146.839 253.892 135.207 246.45 128.604 243.656 119.207 230.45 110.648 229.053 106.56 219.936 96.325 216.583 84.795 219.656 72.045 199.289 62.089 190.73 56.883 175.568 49.722 161.421 37.354 147.656 27.677 137.98 13.633 130.818z"/>
        <path stroke="#FEFEFE" d="M368.883 328.582l6.324-1.573-.838 5.485.559 3.53 4.75 3.353 4.646-.28L394 353.142l.56 7.44-6.044 2.515-2.516 5.206 9.957 2.235 3.25 5.765 6.426-1.854 2.412 2.972 3.074-3.25 5.764.838 1.398 2.691 3.809-1.118-1.853-18.132 4.646-.279 1.957 5.485 5.484-.279 5.766 3.632 8-.28 6.984 14.044-2.793.838.559 5.766 4.367.28 2.235 5.205 4.927 7.161 5.868-6.602-.28-4.927 3.809 2.235 6.883-4.75.558 7.162h3.912l6.323 5.588L498 390.45l1.399 3.81 5.763-2.693m-122.234-163.91l-1.117 4.646-3.25 2.235-.28 4.75-6.044-1.118-2.516 5.486 3.353 1.117-5.587 7.442-4.368.838.838 4.088-17.117 1.677-7.441-3.25-2.237 1.852h-7.441l-3.072 6.603h-4.088l-4.928 12.75 6.883 6.324 9.117.28.178 4.926h3.35l4.193 5.867-2.793 6.603 4.367 1.398v4.367l6.146 3.353.28-3.912 6.045 1.957.279 5.206 4.646 1.675v11.074l8.838 2.971-6.322 8.56-11.074 1.955-2.412 2.514-5.588-3.353-9.397.56-4.927-7.442-6.323-1.118 1.676-6.882-13.867-18.514 1.676-4.369-1.955-2.794-5.207.838-5.485-2.794-5.588 3.074-2.691-3.074-4.471 2.515 7.162 5.765-8.558 15.72.279 2.794-5.207.28-7.162 9.676h-2.234l-1.397-2.235.558-4.089-5.765 3.53-3.073-3.808-6.882 1.573-2.971-2.69v-5.766l-2.514-3.352.278-4.192-3.631-1.015-16.28 17.015 10.235 15.265 4.47-2.236 1.575 3.53 4.47.838 11.25 10.795 7.264 1.117 4.088 4.368-2.235 6.882 11.634 6.706-1.678 3.808 4.75 3.633m-69.308-241.677l4.749 2.236 1.854 4.647 6.705-6.044 2.692 1.397-.28 4.367 1.956 2.235h7.44l1.399 4.648-6.883 4.75 4.088 6.323-1.676 4.927 8.838 5.308 9.956 1.854 11.632-10.133 2.97.735v6.427l7.722 3.53.558 3.911 3.633-2.235 5.764 4.647-1.397 3.073 5.309 3.912 9.015-5.588 2.514 5.588 4.928-4.75-.737-4.368 4.368-1.955 3.353 4.647 4.088-.28M58.28 180.215l4.927-3.074 11.633 4.191 2.97-3.353-2.412-9.397 2.97-2.69 7.442 1.117.838-4.47h6.706l3.809 4.75 10.794 5.205 4.926 10.515 9.957 1.015 3.25-3.809 5.029.558 8-9.117h5.485v3.911l3.073 2.692 12.927-3.53 3.912 3.53 5.206-1.397 3.352 6.882 10.97-3.529 4.472-4.927.279-5.588 4.927-10.97 3.632.558-.838 8.28 1.853 3.808 3.91-1.676 1.398-4.088 3.81.558 3.073-5.029-1.397-3.25 1.956-6.324 3.529-4.19 1.956-6.883-8-.838 2.794-7.162-6.883-3.073-4.75-6.604 2.236-2.514-3.911-7.162"/>
        <circle cx="133" cy="101" r="6" fill="#FFF"/>
        <circle cx="219" cy="238" r="6" fill="#FFF"/>
        <circle cx="290" cy="359" r="6" fill="#FFF"/>
        <circle cx="389" cy="309" r="6" fill="#FFF"/>
        <circle cx="296" cy="101" r="6" fill="#FFF"/>
        <path stroke="#990434" stroke-width="2" d="M0.045 127.568L0.325 122.539 6.089 113.701 7.207 109.891 15.207 111.568 20.516 109.891 33.722 111.288 32.604 96.303 30.369 94.45 24.883 92.215 21.354 87.288 23.486 84.215 27.119 83.097 26.28 78.73 23.766 78.45 24.604 75.098 27.398 74.539 32.325 77.612 35.119 74.818 38.089 74.539 46.648 70.171 45.81 67.656 50.56 63.745 53.074 63.009 54.369 64.862 56.604 63.745 56.604 60.774 59.119 57.701 58.839 55.009 64.325 55.568 69.074 52.495 69.074 49.7 67.957 46.73 64.604 44.774 62.928 36.774 67.119 35.936 70.369 24.304 63.486 22.73 60.236 16.304 55.766 14.73 58.28 8.583 62.089 4.495 66.001 9.701 68.236 11.936 70.089 3.936 77.81 0.024 86.369 0.862 88.604 6.45 90.28 14.45 94.369 18.259 99.957 20.495 90.28 31.009 93.81 40.583 105.721 43.936 113.163 51.098 117.074 48.303 122.28 47.289 127.207 44.774 132.236 49.7 131.677 44.215 136.045 44.495 138.839 39.568 144.325 47.009 150.369 50.539 152.325 54.45 158.369 55.289 162.28 62.45 162.56 69.333 166.089 81.422 171.119 88.583 179.119 93.891 190.089 91.656 194.281 96.303 193.163 103.009 197.81 104.862 198.369 113.142 203.119 111.568 208.045 114.539 212.795 111.288 215.766 113.142 213.354 118.171 212.795 124.774 216.883 123.377 219.677 118.45 228.795 114.818 233.163 108.495 233.163 99.377 235.398 94.45 238.927 95.009 239.486 99.936 245.354 99.656 251.119 95.745 259.119 91.098 259.119 87.568 255.207 85.053 255.486 81.422 266.56 79.289 266.839 74.818 269.354 72.024 275.957 73.7 280.045 65.98 283.399 66.539 287.207 64.304 289.721 59.656 287.766 58.259 287.486 53.892 284.795 50.259 286.369 46.73 292.236 50.539 295.486 49.142 296.045 44.774 306.281 47.009 307.957 49.98 312.045 47.289 308.795 43.936 312.324 42.259 322 46.45 329.721 41.421 332.516 37.612 334.09 39.568 346.561 35.097 351.766 28.774 352.604 17.421 357.633 16.025 363.678 18.259 370.561 13.612 385.441 22.73 385.441 31.289 396.795 36.774 398.369 42.539 392.045 48.024 392.045 50.818 388.795 55.745 374.09 59.097 372.795 55.745 354 55.745 351.486 58.818 354.281 63.568 349.633 66.818 353.441 77.892 352.604 84.495 348.236 89.98 340.516 89.421 337.162 92.495 342.928 101.612 351.207 103.289 357.633 107.656 357.811 111.568 353.162 113.98 354.281 123.098 364.516 128.862 368.324 140.495 379.119 149.612 390.928 151.289 389.811 153.701 398.649 161.421 398.09 164.495 384.604 164.215 382.369 168.024 386.281 170.818 380.795 176.862 375.486 174.73 369.441 176.862 357.811 168.024 342.928 171.098 339.399 169.142 333.354 169.142 333.074 174.73 321.441 184.025 321.441 194.818 325.074 197.612 323.678 201.422 333.074 212.495 336.883 212.774 336.883 209.421 356.516 212.774 367.766 220.774 376.604 221.612 382.09 227.097 388.236 227.936 389.074 232.025 397.633 234.539 402.281 239.289 400.324 254.171 402 261.333 405.633 263.009 405.633 259.656 408.324 257.98 419.399 263.745 429.633 264.583 431.207 270.171 442 275.935 450.561 271.289 454.928 263.009 459.957 261.891 462.649 263.568 462.09 267.656 467.399 269.053 469.633 265.98 474.281 266.539 481.441 278.45 487.766 279.289 489.162 274.539 494.369 275.935 493.633 278.73 502.649 280.583 504.883 277.891 509.633 281.142 512.045 280.862 515.957 283.378 514.561 288.862 519.486 292.495 526.928 300.215 527.207 304.303 534.09 315.657 532.795 321.701 536.604 328.024 534.09 331.936 537.162 334.73 536.883 339.097 533.074 338.818 529.721 343.289 531.119 345.98 529.441 351.009 525.354 352.303 519.766 358.172 517.354 363.936 508.795 364.215 504.883 370.818 508.795 381.891 503.766 387.936 505.441 391.745 509.811 399.745 508.516 404.495 499.119 405.333 496.604 408.024 498 412.495 495.207 417.701 489.441 416.303 482.561 424.583 475.957 417.701 471.207 421.333 464.604 419.936 462.369 417.422 454.649 417.422 450.561 415.568 448.883 417.701 445.074 418.539 443.119 424.024 449.441 427.097 451.119 431.009 445.074 432.303 433.162 427.097 429.074 426.259 401.721 412.774 390.928 411.378 386.281 413.333 387.678 417.141 383.766 419.936 377.441 415.745 365.354 415.745 355.957 421.333 350.649 428.215 347.678 432.583 341.074 435.097 335.486 431.745 334.09 423.009 320.883 400.024 308.236 390.451 293.633 386.539 285.354 381.891 283.957 385.422 277.633 386.539 266.56 377.701 260.516 374.45 253.633 374.172 251.119 378.259 246.089 378.259 242.839 367.009 229.81 350.172 205.633 321.141 183.207 300.774 173.074 296.303 168.325 299.657 163.398 297.98 163.398 287.009 152.325 264.304 146.839 253.892 135.207 246.45 128.604 243.656 119.207 230.45 110.648 229.053 106.56 219.936 96.325 216.583 84.795 219.656 72.045 199.289 62.089 190.73 56.883 175.568 49.722 161.421 37.354 147.656 27.677 137.98 13.633 130.818z"/>
        <text fill="#FFF" font-family="TeutonNormal, Teuton Normal" font-size="15">
            <tspan x="107.826" y="125.139">VITERBO</tspan>
        </text>
        <text fill="#FFF" font-family="TeutonNormal, Teuton Normal" font-size="15">
            <tspan x="281.261" y="125.657">RIETI</tspan>
        </text>
        <text fill="#FFF" font-family="TeutonNormal, Teuton Normal" font-size="15">
            <tspan x="400.127" y="314.162">FROSINONE</tspan>
        </text>
        <text fill="#FFF" font-family="TeutonNormal, Teuton Normal" font-size="15">
            <tspan x="303.798" y="364.148">LATINA</tspan>
        </text>
        <text fill="#FFF" font-family="TeutonNormal, Teuton Normal" font-size="15">
            <tspan x="201.529" y="261.647">ROMA</tspan>
        </text>
    </g>
</svg>
