<svg xmlns="http://www.w3.org/2000/svg" width="110" height="111" viewBox="0 0 110 111">
    <path fill="#FFF" fill-rule="evenodd" d="M20.963 84.701c.018.088.027.178.027.274 0 .099-.009.189-.027.278-.018.091-.046.181-.081.266-.036.086-.081.172-.124.239-.06.087-.123.163-.185.225-.065.065-.136.123-.215.175-.078.052-.161.096-.243.13-.086.035-.178.064-.266.082-.178.035-.39.034-.552.002-.097-.02-.188-.048-.274-.084-.084-.034-.166-.078-.25-.134-.074-.048-.144-.106-.21-.171-.061-.062-.122-.137-.173-.213-.052-.08-.098-.164-.134-.25-.035-.086-.062-.176-.08-.265-.02-.098-.03-.19-.03-.28 0-.088.01-.179.029-.275.019-.092.045-.18.081-.266.037-.088.081-.171.132-.247.054-.082.114-.155.175-.216.067-.067.138-.125.216-.176.075-.05.158-.094.247-.13.086-.036.175-.064.268-.082.09-.019.183-.028.276-.028.092 0 .185.01.273.027.092.02.183.047.269.082.087.036.17.08.252.135.071.047.142.105.212.174.06.06.121.135.17.207.055.083.1.168.136.256.036.084.063.172.081.265zm86.195 1.277l-.74.025c-8.75.298-17.346 2.418-24.859 6.132-7.502 3.71-13.801 8.949-18.215 15.151l-.23.322H46.993l.64-1.14c10.477-18.652 33.533-31.15 58.74-31.841l.786-.022v11.373zm-.001 21.63H66.605l1.059-1.258c4.313-5.127 10.121-9.433 16.798-12.454 6.682-3.023 14.255-4.768 21.901-5.046l.794-.029v18.787zm-63.338 0H28.38l.454-1.066c11.438-26.838 42.6-45.378 77.54-46.134l.783-.018v11.372l-.747.02c-13.563.339-26.604 3.876-37.712 10.227-11.042 6.313-19.571 15.019-24.667 25.177l-.212.422zm-18.484 0H2.864V60.396l.758-.007c.379-.003.755-.005 1.13-.005 4.267 0 8.548.266 12.724.79l.67.084v16.42c0 .784.639 1.422 1.423 1.422s1.422-.638 1.422-1.422V61.673l.894.153c11.043 1.89 21.414 5.576 30.824 10.959l1.062.607-1.01.69c-5.96 4.067-11.242 8.775-15.696 13.99-5.002 5.859-8.885 12.268-11.539 19.05l-.19.486zM17.277 52.7C9.048 51.568 2.843 44.444 2.843 36.128c0-4.835 2.093-9.433 5.742-12.615.39-.34.564-.864.456-1.368-.158-.74-.239-1.503-.239-2.267 0-5.937 4.83-10.768 10.767-10.768 5.936 0 10.766 4.83 10.766 10.768 0 .764-.08 1.527-.238 2.266-.108.506.066 1.03.455 1.37 3.65 3.18 5.742 7.778 5.742 12.614 0 8.315-6.205 15.439-14.433 16.572l-.87.12v-9.784l.415-.214c.13-.066.248-.153.352-.257l6.522-6.524c.27-.269.417-.626.417-1.005 0-.38-.148-.737-.417-1.006-.268-.268-.625-.416-1.005-.416-.38 0-.737.148-1.006.416l-5.278 5.281v-21.84c0-.783-.638-1.421-1.422-1.421-.784 0-1.422.638-1.422 1.422V39.31l-5.28-5.28c-.269-.268-.625-.416-1.005-.416-.38 0-.737.147-1.005.416-.555.554-.555 1.456 0 2.01l6.522 6.524c.104.104.224.192.355.26l.413.214v9.78l-.87-.12zm92.307 5.257c-.268-.268-.626-.416-1.006-.416-18.789.002-36.677 4.814-51.73 13.914l-.396.24-.396-.24c-10.41-6.297-21.992-10.52-34.423-12.554l-.642-.105v-3.135l.683-.074c4.765-.512 9.171-2.765 12.408-6.344 3.26-3.606 5.055-8.263 5.055-13.115 0-5.205-2.128-10.288-5.837-13.944l-.269-.264.046-.373c.067-.552.101-1.113.101-1.669 0-7.505-6.105-13.611-13.61-13.611-7.504 0-13.61 6.106-13.61 13.611 0 .551.035 1.112.102 1.669l.046.373-.268.264C2.128 25.84 0 30.923 0 36.128c0 4.852 1.795 9.51 5.055 13.115 3.237 3.579 7.643 5.832 12.408 6.344l.684.074v2.727l-.857-.102c-4.12-.495-8.338-.745-12.539-.745-1.114 0-2.242.017-3.353.05-.772.025-1.377.65-1.377 1.422v50.016c0 .784.637 1.422 1.421 1.422h107.136c.784 0 1.422-.638 1.422-1.422V58.962c0-.374-.152-.741-.416-1.005zm-58.3-50.688c-.553-.554-.553-1.456 0-2.01.27-.269.626-.416 1.006-.416s.737.147 1.006.416l2.846 2.847c.268.269.416.626.416 1.005 0 .38-.148.737-.416 1.005-.269.269-.626.417-1.005.417-.38 0-.738-.148-1.006-.417l-2.846-2.847zm36.01 36.014c-.268-.268-.416-.624-.416-1.004s.148-.737.416-1.005c.269-.268.626-.416 1.006-.416s.737.148 1.005.415l2.846 2.847c.269.269.417.626.417 1.006s-.148.737-.417 1.005c-.268.269-.625.417-1.005.417-.38 0-.736-.148-1.005-.417l-2.847-2.848zm-32.158-2.426c.38 0 .737.148 1.006.417.268.268.416.625.416 1.004 0 .38-.148.737-.416 1.006l-2.846 2.847c-.269.269-.626.417-1.006.417s-.737-.148-1.005-.417c-.269-.268-.417-.625-.417-1.005 0-.38.148-.737.417-1.006l2.847-2.847c.268-.268.625-.416 1.004-.416zm32.158-30.741c-.268-.268-.416-.625-.416-1.005 0-.38.148-.736.416-1.005l2.847-2.848c.268-.268.625-.416 1.005-.416.38 0 .737.148 1.005.416.555.555.555 1.457.001 2.011l-2.847 2.847c-.268.269-.626.417-1.006.417s-.736-.148-1.005-.417zM46.027 25.695c0-.784.638-1.422 1.421-1.422h3.556c.784 0 1.422.638 1.422 1.422 0 .784-.638 1.421-1.422 1.421h-3.556c-.783 0-1.421-.637-1.421-1.421zm46.405-1.422h3.556c.783 0 1.421.638 1.421 1.422 0 .784-.638 1.421-1.421 1.421h-3.556c-.784 0-1.422-.637-1.422-1.421s.638-1.422 1.422-1.422zM71.718 44.991c.784 0 1.422.637 1.422 1.421v3.556c0 .784-.638 1.421-1.422 1.421-.784 0-1.422-.637-1.422-1.421v-3.556c0-.784.638-1.421 1.422-1.421zM70.296 4.978V1.422c0-.784.638-1.422 1.422-1.422.784 0 1.422.638 1.422 1.422v3.556c0 .783-.638 1.421-1.422 1.421-.784 0-1.422-.638-1.422-1.421zm1.422 8.514c6.727 0 12.2 5.474 12.201 12.203 0 6.728-5.473 12.203-12.2 12.203-6.728 0-12.201-5.475-12.201-12.203 0-6.729 5.473-12.203 12.2-12.203zm0 27.249c8.295 0 15.044-6.75 15.044-15.046 0-8.297-6.748-15.046-15.044-15.046-8.295 0-15.044 6.75-15.044 15.046s6.75 15.046 15.044 15.046z"/>
</svg>
